<svg width="44" height="77" viewBox="0 0 44 44" fill="none" xmlns="http://www.w3.org/2000/svg">
<path d="M13.5882 11.7033C12.7856 10.7209 12.2189 10.2208 12.2189 7.5124C12.2189 5.03217 10.9523 4.14854 9.90993 3.71938C9.77146 3.66249 9.64112 3.53184 9.59892 3.38962C9.41607 2.7673 8.90346 2.21906 8.22206 2.21906C7.54066 2.21906 7.02774 2.76761 6.84676 3.39025C6.80456 3.53403 6.67422 3.66249 6.53575 3.71938C5.49209 4.14916 4.22681 5.02967 4.22681 7.5124C4.22525 10.2208 3.65856 10.7209 2.85589 11.7033C2.52332 12.1103 2.81463 12.7213 3.39632 12.7213H13.0509C13.6295 12.7213 13.9189 12.1084 13.5882 11.7033Z" stroke="black" stroke-width="1.00189" stroke-linecap="round" stroke-linejoin="round"/>
<path d="M10.2229 12.7213V13.2215C10.2229 13.7521 10.0121 14.261 9.63688 14.6362C9.26167 15.0114 8.75278 15.2222 8.22216 15.2222C7.69153 15.2222 7.18264 15.0114 6.80743 14.6362C6.43223 14.261 6.22144 13.7521 6.22144 13.2215V12.7213" stroke="black" stroke-width="1.00189" stroke-linecap="round" stroke-linejoin="round"/>
</svg>
